{
  "source": "C:\\Users\\Peter\\Desktop\\stuff\\MIUN\\quantitative_research\\video_compression\\videos\\BVI-HD\\BVI-HD_CDVL_videos\\ORIG\\PlasmaAveragePan_1920x1080_60fps.mp4",
  "output": "C:\\Users\\Peter\\Desktop\\stuff\\MIUN\\quantitative_research\\video_compression\\compressed_videos\\BVI-HD\\vp9\\1.5\\PlasmaAveragePan_1920x1080_60fps_vp9.webm",
  "codec": "vp9",
  "ok": "Input #0, mov,mp4,m4a,3gp,3g2,mj2, from 'C:\\Users\\Peter\\Desktop\\stuff\\MIUN\\quantitative_research\\video_compression\\videos\\BVI-HD\\BVI-HD_CDVL_videos\\ORIG\\PlasmaAveragePan_1920x1080_60fps.mp4':\n  Metadata:\n    major_brand     : isom\n    minor_version   : 512\n    compatible_brands: isomiso2avc1mp41\n    encoder         : Lavf54.28.101\n  Duration: 00:00:05.00, start: 0.000000, bitrate: 73730 kb/s\n  Stream #0:0[0x1](und): Video: h264 (High 4:4:4 Predictive) (avc1 / 0x31637661), yuv420p(progressive), 1920x1080, 73727 kb/s, 60 fps, 60 tbr, 60 tbn (default)\n    Metadata:\n      handler_name    : VideoHandler\n      vendor_id       : [0][0][0][0]\n[out#0/webm @ 000001f87b147840] Codec AVOption b:a (set bitrate (in bits/s)) has not been used for any stream. The most likely reason is either wrong type (e.g. a video option with no video streams) or that it is a private option of some decoder which was not actually used for any stream.\nStream mapping:\n  Stream #0:0 -> #0:0 (h264 (native) -> vp9 (libvpx-vp9))\nPress [q] to stop, [?] for help\n[libvpx-vp9 @ 000001f87b032040] v1.15.2-100-g40561f514\nOutput #0, webm, to 'C:\\Users\\Peter\\Desktop\\stuff\\MIUN\\quantitative_research\\video_compression\\compressed_videos\\BVI-HD\\vp9\\1.5\\PlasmaAveragePan_1920x1080_60fps_vp9.webm':\n  Metadata:\n    major_brand     : isom\n    minor_version   : 512\n    compatible_brands: isomiso2avc1mp41\n    encoder         : Lavf62.3.100\n  Stream #0:0(und): Video: vp9, yuv420p(tv, progressive), 1920x1080, q=2-31, 1500 kb/s, 60 fps, 1k tbn (default)\n    Metadata:\n      encoder         : Lavc62.11.100 libvpx-vp9\n      handler_name    : VideoHandler\n      vendor_id       : [0][0][0][0]\n    Side data:\n      cpb: bitrate max/min/avg: 0/0/0 buffer size: 1500000 vbv_delay: N/A\nframe=    5 fps=0.0 q=61.0 size=       1KiB time=00:00:00.08 bitrate=  60.8kbits/s speed=0.163x elapsed=0:00:00.51    \nframe=   14 fps= 14 q=55.0 size=       1KiB time=00:00:00.23 bitrate=  21.7kbits/s speed=0.228x elapsed=0:00:01.02    \nframe=   22 fps= 14 q=54.0 size=       1KiB time=00:00:00.36 bitrate=  13.8kbits/s speed=0.237x elapsed=0:00:01.54    \nframe=   31 fps= 15 q=55.0 size=       1KiB time=00:00:00.51 bitrate=   9.8kbits/s speed=0.252x elapsed=0:00:02.05    \nframe=   39 fps= 15 q=57.0 size=       1KiB time=00:00:00.65 bitrate=   7.8kbits/s speed=0.253x elapsed=0:00:02.57    \nframe=   47 fps= 15 q=57.0 size=       1KiB time=00:00:00.78 bitrate=   6.5kbits/s speed=0.253x elapsed=0:00:03.09    \nframe=   56 fps= 16 q=56.0 size=       1KiB time=00:00:00.93 bitrate=   5.4kbits/s speed=0.259x elapsed=0:00:03.59    \nframe=   65 fps= 16 q=57.0 size=       1KiB time=00:00:01.08 bitrate=   4.7kbits/s speed=0.263x elapsed=0:00:04.12    \nframe=   73 fps= 16 q=35.0 size=       1KiB time=00:00:01.21 bitrate=   4.2kbits/s speed=0.262x elapsed=0:00:04.64    \nframe=   82 fps= 16 q=59.0 size=       1KiB time=00:00:01.36 bitrate=   3.7kbits/s speed=0.265x elapsed=0:00:05.16    \nframe=   92 fps= 16 q=56.0 size=       1KiB time=00:00:01.53 bitrate=   3.3kbits/s speed=0.269x elapsed=0:00:05.69    \nframe=  100 fps= 16 q=55.0 size=       1KiB time=00:00:01.66 bitrate=   3.0kbits/s speed=0.269x elapsed=0:00:06.20    \nframe=  108 fps= 16 q=56.0 size=       1KiB time=00:00:01.80 bitrate=   2.8kbits/s speed=0.268x elapsed=0:00:06.70    \nframe=  118 fps= 16 q=57.0 size=       1KiB time=00:00:01.96 bitrate=   2.6kbits/s speed=0.272x elapsed=0:00:07.23    \nframe=  126 fps= 16 q=59.0 size=       1KiB time=00:00:02.10 bitrate=   2.4kbits/s speed=0.271x elapsed=0:00:07.75    \nframe=  135 fps= 16 q=58.0 size=     256KiB time=00:00:02.25 bitrate= 932.1kbits/s speed=0.272x elapsed=0:00:08.27    \nframe=  144 fps= 16 q=57.0 size=     256KiB time=00:00:02.40 bitrate= 873.8kbits/s speed=0.273x elapsed=0:00:08.79    \nframe=  153 fps= 16 q=58.0 size=     256KiB time=00:00:02.55 bitrate= 822.4kbits/s speed=0.274x elapsed=0:00:09.31    \nframe=  161 fps= 16 q=59.0 size=     256KiB time=00:00:02.68 bitrate= 781.5kbits/s speed=0.273x elapsed=0:00:09.82    \nframe=  169 fps= 16 q=59.0 size=     256KiB time=00:00:02.81 bitrate= 744.6kbits/s speed=0.272x elapsed=0:00:10.34    \nframe=  178 fps= 16 q=57.0 size=     256KiB time=00:00:02.96 bitrate= 706.9kbits/s speed=0.273x elapsed=0:00:10.85    \nframe=  186 fps= 16 q=57.0 size=     256KiB time=00:00:03.10 bitrate= 676.5kbits/s speed=0.273x elapsed=0:00:11.36    \nframe=  195 fps= 16 q=56.0 size=     256KiB time=00:00:03.25 bitrate= 645.3kbits/s speed=0.273x elapsed=0:00:11.89    \nframe=  204 fps= 16 q=57.0 size=     256KiB time=00:00:03.40 bitrate= 616.8kbits/s speed=0.274x elapsed=0:00:12.42    \nframe=  211 fps= 16 q=57.0 size=     256KiB time=00:00:03.51 bitrate= 596.3kbits/s speed=0.272x elapsed=0:00:12.92    \nframe=  218 fps= 16 q=57.0 size=     256KiB time=00:00:03.63 bitrate= 577.2kbits/s speed=0.27x elapsed=0:00:13.44    \nframe=  223 fps= 16 q=56.0 size=     256KiB time=00:00:03.71 bitrate= 564.3kbits/s speed=0.266x elapsed=0:00:13.95    \nframe=  229 fps= 16 q=56.0 size=     256KiB time=00:00:03.81 bitrate= 549.5kbits/s speed=0.264x elapsed=0:00:14.47    \nframe=  236 fps= 16 q=34.0 size=     256KiB time=00:00:03.93 bitrate= 533.2kbits/s speed=0.262x elapsed=0:00:14.99    \nframe=  244 fps= 16 q=59.0 size=     256KiB time=00:00:04.06 bitrate= 515.7kbits/s speed=0.262x elapsed=0:00:15.51    \nframe=  250 fps= 16 q=59.0 size=     256KiB time=00:00:04.16 bitrate= 503.3kbits/s speed=0.26x elapsed=0:00:16.04    \nframe=  259 fps= 16 q=57.0 size=     512KiB time=00:00:04.31 bitrate= 971.7kbits/s speed=0.261x elapsed=0:00:16.56    \nframe=  267 fps= 16 q=56.0 size=     512KiB time=00:00:04.45 bitrate= 942.5kbits/s speed=0.26x elapsed=0:00:17.09    \nframe=  273 fps= 15 q=56.0 size=     512KiB time=00:00:04.55 bitrate= 921.8kbits/s speed=0.258x elapsed=0:00:17.62    \nframe=  276 fps= 15 q=56.0 size=     512KiB time=00:00:04.60 bitrate= 911.8kbits/s speed=0.254x elapsed=0:00:18.13    \nframe=  276 fps= 15 q=56.0 size=     512KiB time=00:00:04.60 bitrate= 911.8kbits/s speed=0.247x elapsed=0:00:18.65    \nframe=  276 fps= 14 q=56.0 size=     512KiB time=00:00:04.60 bitrate= 911.8kbits/s speed=0.24x elapsed=0:00:19.17    \n[out#0/webm @ 000001f87b147840] video:658KiB audio:0KiB subtitle:0KiB other streams:0KiB global headers:0KiB muxing overhead: 0.419360%\nframe=  300 fps= 15 q=57.0 Lsize=     661KiB time=00:00:05.00 bitrate=1082.4kbits/s speed=0.256x elapsed=0:00:19.55    \n",
  "seconds": 19.81112313270569,
  "probe_out": {}
}